<?xml version="1.0" encoding="UTF-8" standalone="no"?>
<!-- Created with Inkscape (http://www.inkscape.org/) -->

<svg
   xmlns:dc="http://purl.org/dc/elements/1.1/"
   xmlns:cc="http://creativecommons.org/ns#"
   xmlns:rdf="http://www.w3.org/1999/02/22-rdf-syntax-ns#"
   xmlns:svg="http://www.w3.org/2000/svg"
   xmlns="http://www.w3.org/2000/svg"
   xmlns:sodipodi="http://sodipodi.sourceforge.net/DTD/sodipodi-0.dtd"
   xmlns:inkscape="http://www.inkscape.org/namespaces/inkscape"
   width="10cm"
   height="10cm"
   viewBox="0 0 354.33071 354.3307"
   id="svg2"
   version="1.1"
   inkscape:version="0.91 r13725"
   sodipodi:docname="conjunto-abierto.svg">
  <sodipodi:namedview
     id="base"
     pagecolor="#ffffff"
     bordercolor="#666666"
     borderopacity="1.0"
     inkscape:pageopacity="0.0"
     inkscape:pageshadow="2"
     inkscape:zoom="1.979899"
     inkscape:cx="186.18165"
     inkscape:cy="172.29984"
     inkscape:document-units="px"
     inkscape:current-layer="layer1"
     showgrid="false"
     inkscape:window-width="1855"
     inkscape:window-height="1056"
     inkscape:window-x="65"
     inkscape:window-y="24"
     inkscape:window-maximized="1"
     inkscape:snap-grids="true"
     units="cm" />
  <defs
     id="defs4" />
  <metadata
     id="metadata7">
    <rdf:RDF>
      <cc:Work
         rdf:about="">
        <dc:format>image/svg+xml</dc:format>
        <dc:type
           rdf:resource="http://purl.org/dc/dcmitype/StillImage" />
        <dc:title></dc:title>
      </cc:Work>
    </rdf:RDF>
  </metadata>
  <g
     inkscape:label="Layer 1"
     inkscape:groupmode="layer"
     id="layer1"
     transform="translate(0,-698.03155)">
    <path
       style="fill:#b3b3b3;fill-rule:evenodd;stroke:#000000;stroke-width:2.14830971;stroke-linecap:butt;stroke-linejoin:miter;stroke-miterlimit:4;stroke-dasharray:4.29661979, 2.1483099;stroke-dashoffset:0;stroke-opacity:1"
       d="m 108.82495,808.10157 c -21.09,31.91268 -63.473342,25.77526 -87.98147,58.19923 -40.654697,53.78568 4.78293,165.4521 69.54725,165.4521 7.540047,0 32.34594,11.1387 39.38218,4.1571 11.51261,-11.4233 40.45022,-23.8096 56.14058,-31.5939 21.09774,-10.46703 64.03335,-56.4026 75.41268,-78.98467 11.93898,-23.69269 40.59863,-34.4637 56.97849,-50.71646 51.03701,-50.64103 27.35994,-131.83386 -15.92046,-160.46357 -31.38512,-20.76107 -66.59514,8.31417 -92.17107,8.31417 -51.60323,0 -66.33475,76.94064 -101.38818,85.636 z"
       id="path3407"
       inkscape:connector-curvature="0" />
    <ellipse
       style="fill:#aa0000;stroke:#000000;stroke-width:3.16067338;stroke-miterlimit:4;stroke-dasharray:6.32134668, 3.16067333;stroke-dashoffset:0;stroke-opacity:1"
       id="path3409"
       cx="217.33545"
       cy="822.23566"
       rx="45.996334"
       ry="41.898079" />
    <text
       xml:space="preserve"
       style="font-style:normal;font-weight:normal;font-size:40px;line-height:125%;font-family:sans-serif;letter-spacing:0px;word-spacing:0px;fill:#000000;fill-opacity:1;stroke:none;stroke-width:1px;stroke-linecap:butt;stroke-linejoin:miter;stroke-opacity:1"
       x="225.26402"
       y="545.26562"
       id="text4211"
       sodipodi:linespacing="125%"><tspan
         sodipodi:role="line"
         id="tspan4213"
         x="225.26402"
         y="545.26562" /></text>
    <g
       transform="matrix(0.8294973,0,0,0.82306131,-179.41912,680.24167)"
       id="g4379">
      <g
         style="font-style:normal;font-variant:normal;font-weight:normal;font-stretch:normal;letter-spacing:normal;word-spacing:normal;text-anchor:start;fill:none;fill-opacity:1;fill-rule:evenodd;stroke:#000000;stroke-linecap:butt;stroke-linejoin:miter;stroke-miterlimit:10.43299961;stroke-dasharray:none;stroke-dashoffset:0;stroke-opacity:1"
         word-spacing="normal"
         letter-spacing="normal"
         font-size-adjust="none"
         font-stretch="normal"
         font-weight="normal"
         font-variant="normal"
         font-style="normal"
         stroke-miterlimit="10.433"
         xml:space="preserve"
         transform="matrix(1.0629921,0,0,-1.0629921,-186.02362,789.27165)"
         id="g4381"><path
           style="fill:#000000;stroke-width:0"
           inkscape:connector-curvature="0"
           id="path4383"
           d="m 484.99,417.51 -0.01,-0.66 -0.04,-0.63 -0.07,-0.62 -0.09,-0.6 -0.12,-0.58 -0.15,-0.56 -0.16,-0.54 -0.19,-0.52 -0.2,-0.51 -0.23,-0.48 -0.25,-0.47 -0.27,-0.44 -0.28,-0.42 -0.3,-0.41 -0.32,-0.38 -0.33,-0.36 -0.34,-0.35 -0.36,-0.32 -0.37,-0.3 -0.38,-0.28 -0.39,-0.25 -0.4,-0.24 -0.41,-0.22 -0.41,-0.19 -0.42,-0.17 -0.43,-0.15 -0.44,-0.12 -0.43,-0.11 -0.44,-0.08 -0.45,-0.05 -0.44,-0.04 -0.44,-0.01 c -2.34,0 -8.22,1.25 -8.22,10.71 l 0,18.98 c 0,1.79 0.1,2.34 3.93,2.34 l 1.2,0 0,1.54 -14.7,0 0,-1.54 1.2,0 c 3.84,0 3.93,-0.55 3.93,-2.34 l 0,-18.78 c 0,-7.03 5.78,-12.46 12.56,-12.46 5.72,0 10.21,4.64 11.06,10.31 0.15,1 0.15,1.45 0.15,3.44 l 0,15.94 c 0,1.65 0,3.89 5.13,3.89 l 0,1.54 -11.81,0 0,-1.54 c 5.13,0 5.13,-2.34 5.13,-3.69 z" /></g>    </g>
    <g
       transform="matrix(0.8294973,0,0,0.82306131,-57.082971,543.88921)"
       id="g4413">
      <g
         style="font-style:normal;font-variant:normal;font-weight:normal;font-stretch:normal;letter-spacing:normal;word-spacing:normal;text-anchor:start;fill:none;fill-opacity:1;fill-rule:evenodd;stroke:#000000;stroke-linecap:butt;stroke-linejoin:miter;stroke-miterlimit:10.43299961;stroke-dasharray:none;stroke-dashoffset:0;stroke-opacity:1"
         id="g4415"
         transform="matrix(0.5653801,0,0,-0.65812149,35.767022,596.58359)"
         xml:space="preserve"
         stroke-miterlimit="10.433"
         font-style="normal"
         font-variant="normal"
         font-weight="normal"
         font-stretch="normal"
         font-size-adjust="none"
         letter-spacing="normal"
         word-spacing="normal"><path
           style="fill:#000000;stroke-width:0"
           inkscape:connector-curvature="0"
           d="m 482.7,425.98 -0.17,-0.05 -0.16,-0.06 -0.15,-0.06 -0.15,-0.07 -0.15,-0.08 -0.13,-0.08 -0.14,-0.09 -0.13,-0.09 -0.12,-0.09 -0.12,-0.1 -0.11,-0.1 -0.11,-0.11 -0.1,-0.11 -0.1,-0.12 -0.09,-0.11 -0.09,-0.12 -0.08,-0.12 -0.07,-0.13 -0.08,-0.12 -0.06,-0.13 -0.06,-0.12 -0.06,-0.13 -0.05,-0.13 -0.04,-0.13 -0.04,-0.13 -0.03,-0.12 -0.03,-0.13 -0.03,-0.13 -0.01,-0.12 -0.02,-0.12 -0.01,-0.12 0,-0.12 c 0,-1.1 0.85,-2.29 2.49,-2.29 1.74,0 3.59,1.44 3.59,3.88 0,2.64 -2.64,4.39 -5.68,4.39 -2.84,0 -4.68,-2.14 -5.33,-3.04 -1.25,2.09 -4.04,3.04 -6.88,3.04 -6.27,0 -9.66,-6.13 -9.66,-7.77 0,-0.7 0.75,-0.7 1.19,-0.7 0.6,0 0.95,0 1.15,0.65 1.45,4.53 5.03,6.02 7.08,6.02 1.89,0 2.79,-0.9 2.79,-2.49 0,-0.94 -0.7,-3.68 -1.15,-5.48 l -1.69,-6.82 c -0.75,-3.04 -2.55,-4.54 -4.24,-4.54 -0.25,0 -1.39,0 -2.39,0.75 1.79,0.5 2.69,2.19 2.69,3.44 0,1.1 -0.85,2.29 -2.49,2.29 -1.75,0 -3.59,-1.44 -3.59,-3.89 0,-2.64 2.64,-4.38 5.68,-4.38 2.84,0 4.68,2.14 5.33,3.04 1.25,-2.09 4.04,-3.04 6.88,-3.04 6.27,0 9.66,6.13 9.66,7.77 0,0.7 -0.75,0.7 -1.2,0.7 -0.6,0 -0.94,0 -1.14,-0.65 -1.45,-4.53 -5.03,-6.03 -7.08,-6.03 -1.89,0 -2.79,0.9 -2.79,2.5 0,1.04 0.65,3.68 1.1,5.52 0.35,1.3 1.49,5.98 1.74,6.78 0.75,2.99 2.5,4.53 4.24,4.53 0.25,0 1.39,0 2.39,-0.74 z"
           id="path4417" /><path
           style="fill:#000000;stroke-width:0"
           inkscape:connector-curvature="0"
           d="m 508.64,410.09 0,0.41 -0.01,0.43 -0.01,0.44 -0.02,0.46 -0.02,0.46 -0.04,0.48 -0.05,0.48 -0.06,0.49 -0.07,0.49 -0.1,0.49 -0.11,0.5 -0.12,0.48 -0.15,0.49 -0.17,0.47 -0.19,0.47 -0.22,0.46 -0.25,0.45 -0.27,0.43 -0.3,0.41 -0.33,0.4 -0.36,0.37 -0.4,0.36 -0.43,0.32 -0.23,0.16 -0.24,0.15 -0.24,0.14 -0.26,0.13 -0.27,0.13 -0.28,0.11 -0.29,0.12 -0.29,0.1 -0.31,0.09 -0.32,0.08 -0.33,0.08 -0.34,0.07 -0.36,0.05 -0.36,0.05 -0.38,0.04 -0.39,0.02 -0.4,0.02 -0.41,0.01 0,-1.61 c 1.33,0 3.6,-0.56 4.15,-2.97 0.39,-1.63 0.39,-4.53 0.39,-6.76 0,-2.44 0,-4.99 -0.35,-6.94 -0.49,-2.82 -2.9,-3.41 -4.19,-3.41 l 0,0 c -1.11,0 -2.16,0.38 -2.99,1.11 -0.95,0.8 -1.54,1.32 -1.54,9.24 0,2.41 0,5.16 0.38,6.84 0.56,2.26 2.72,2.89 4.15,2.89 l 0,1.61 c -8.92,0 -9.38,-7.54 -9.38,-11.79 0,-4.39 0.56,-11.51 9.38,-11.51 8.83,0 9.38,7.08 9.38,11.51 z"
           id="path4419" /></g>    </g>
    <g
       id="g4454"
       transform="matrix(0.47171279,0,0,0.41479286,116.73996,648.76929)">
      <g
         word-spacing="normal"
         letter-spacing="normal"
         font-size-adjust="none"
         font-stretch="normal"
         font-weight="normal"
         font-variant="normal"
         font-style="normal"
         stroke-miterlimit="10.433"
         xml:space="preserve"
         transform="matrix(1.0629921,0,0,-1.0629921,-186.02362,789.27165)"
         id="content"
         style="font-style:normal;font-variant:normal;font-weight:normal;font-stretch:normal;letter-spacing:normal;word-spacing:normal;text-anchor:start;fill:none;fill-opacity:1;fill-rule:evenodd;stroke:#000000;stroke-linecap:butt;stroke-linejoin:miter;stroke-miterlimit:10.43299961;stroke-dasharray:none;stroke-dashoffset:0;stroke-opacity:1"><path
           id="path4457"
           d="m 463.92,409.89 -0.04,-0.18 -0.05,-0.17 -0.04,-0.16 -0.04,-0.15 -0.05,-0.15 -0.04,-0.13 -0.05,-0.13 -0.05,-0.12 -0.06,-0.11 -0.06,-0.11 -0.06,-0.1 -0.07,-0.09 -0.08,-0.09 -0.09,-0.07 -0.09,-0.08 -0.11,-0.06 -0.11,-0.07 -0.12,-0.05 -0.14,-0.05 -0.15,-0.05 -0.16,-0.04 -0.09,-0.02 -0.09,-0.02 -0.09,-0.01 -0.1,-0.02 -0.1,-0.01 -0.1,-0.01 -0.11,-0.02 -0.12,-0.01 -0.11,-0.01 -0.13,-0.01 -0.12,-0.01 -0.13,0 -0.14,-0.01 -0.14,-0.01 -0.14,0 -0.15,-0.01 -0.16,0 -0.16,0 -0.16,0 -0.18,-0.01 -0.17,0 -0.18,0 c -0.85,0 -1.4,0 -1.4,-0.94 0,-0.6 0.45,-0.6 1.4,-0.6 l 16.49,0 -0.9,1.54 -5.63,0 c -0.7,0 -0.8,0 -1.1,0.05 -0.49,0.05 -0.64,0.11 -0.64,0.5 0,0.15 0,0.25 0.25,1.15 l 6.82,27.35 c 0.45,1.74 0.55,1.89 2.69,1.89 l 5.33,0 c 4.88,0 9.01,-2.64 9.01,-9.22 0,-2.44 -0.99,-10.61 -5.23,-16.09 -1.44,-1.84 -5.37,-5.63 -11.5,-5.63 l 0.9,-1.54 c 10.36,0 20.17,10.51 20.17,21.42 0,7.02 -4.23,12.6 -11.71,12.6 l -16.73,0 c -0.95,0 -1.5,0 -1.5,-0.95 0,-0.59 0.45,-0.59 1.45,-0.59 0.64,0 1.54,-0.05 2.14,-0.1 0.8,-0.1 1.09,-0.25 1.09,-0.8 0,-0.2 -0.04,-0.35 -0.2,-0.94 z"
           inkscape:connector-curvature="0"
           style="fill:#000000;stroke-width:0" /><path
           id="path4459"
           d="m 505.2,406.04 0,0.02 0,0.01 0,0.02 0.01,0.03 0.01,0.02 0,0.03 0.01,0.04 0.01,0.04 0.01,0.04 0.01,0.04 0.01,0.05 0.02,0.05 0.01,0.05 0.01,0.06 0.03,0.12 0.03,0.12 0.04,0.14 0.03,0.14 0.04,0.14 0.04,0.15 0.04,0.16 0.08,0.31 0.07,0.31 0.04,0.15 0.04,0.15 0.04,0.14 0.04,0.14 0.03,0.14 0.04,0.12 0.03,0.12 0.01,0.05 0.01,0.05 0.02,0.05 0.01,0.05 0.01,0.04 0.01,0.04 0.01,0.04 0.01,0.03 0.01,0.03 0.01,0.03 0.01,0.02 0,0.02 0.01,0.02 0,0.01 c 0.07,0.27 1.08,2.02 2.2,2.86 0.38,0.27 1.32,0.97 2.82,0.97 0.35,0 1.22,-0.03 1.92,-0.49 -1.11,-0.31 -1.54,-1.29 -1.54,-1.91 0,-0.77 0.6,-1.3 1.4,-1.3 0.8,0 1.95,0.67 1.95,2.13 0,1.81 -1.92,2.55 -3.69,2.55 -1.82,0 -3.39,-0.74 -4.92,-2.48 -0.63,2.13 -2.76,2.48 -3.59,2.48 -1.29,0 -2.16,-0.81 -2.72,-1.78 -0.8,-1.36 -1.29,-3.39 -1.29,-3.56 0,-0.45 0.49,-0.45 0.59,-0.45 0.49,0 0.52,0.11 0.77,1.05 0.52,2.12 1.18,3.76 2.54,3.76 0.91,0 1.16,-0.77 1.16,-1.71 0,-0.66 -0.32,-1.95 -0.56,-2.89 -0.25,-0.94 -0.6,-2.37 -0.77,-3.14 l -1.12,-4.46 c -0.14,-0.46 -0.34,-1.33 -0.34,-1.43 0,-0.77 0.62,-1.12 1.18,-1.12 0.52,0 1.22,0.31 1.5,1.01 0.07,0.21 0.45,1.75 0.66,2.62 z"
           inkscape:connector-curvature="0"
           style="fill:#000000;stroke-width:0" /><path
           id="path4461"
           d="m 535.49,394.04 0,0.03 0,0.03 -0.01,0.01 0,0.02 0,0.01 -0.01,0.02 0,0.02 -0.01,0.01 -0.01,0.02 -0.01,0.02 -0.01,0.03 -0.01,0.02 -0.02,0.02 -0.02,0.03 -0.02,0.03 -0.02,0.03 -0.03,0.03 -0.03,0.04 -0.01,0.02 -0.02,0.02 -0.02,0.02 -0.02,0.02 -0.02,0.02 -0.02,0.03 -0.02,0.02 -0.02,0.02 -0.02,0.03 -0.03,0.02 -0.02,0.03 -0.03,0.03 -0.02,0.03 -0.03,0.03 -0.03,0.03 -0.03,0.03 -0.03,0.03 -0.03,0.03 -0.04,0.04 -0.03,0.03 -0.04,0.04 -0.03,0.03 -0.04,0.04 -0.04,0.04 c -6.23,6.28 -7.82,15.69 -7.82,23.31 0,8.67 1.9,17.34 8.02,23.57 0.65,0.59 0.65,0.69 0.65,0.84 0,0.35 -0.2,0.5 -0.5,0.5 -0.5,0 -4.98,-3.39 -7.92,-9.72 -2.54,-5.47 -3.14,-11 -3.14,-15.19 0,-3.88 0.55,-9.91 3.29,-15.54 2.99,-6.12 7.27,-9.36 7.77,-9.36 0.3,0 0.5,0.15 0.5,0.49 z"
           inkscape:connector-curvature="0"
           style="fill:#000000;stroke-width:0" /><path
           id="path4463"
           d="m 554.64,421.04 0.03,0.13 0.03,0.15 0.05,0.17 0.04,0.18 0.06,0.19 0.06,0.21 0.06,0.21 0.07,0.23 0.08,0.23 0.09,0.24 0.1,0.25 0.1,0.24 0.11,0.25 0.12,0.25 0.13,0.25 0.14,0.25 0.15,0.24 0.15,0.24 0.17,0.23 0.18,0.22 0.18,0.22 0.2,0.2 0.21,0.19 0.22,0.18 0.23,0.16 0.25,0.14 0.12,0.07 0.13,0.06 0.13,0.05 0.14,0.05 0.14,0.05 0.14,0.04 0.14,0.03 0.15,0.03 0.15,0.02 0.16,0.02 0.16,0.01 0.16,0 c 0.25,0 1.45,0 2.49,-0.65 -1.4,-0.25 -2.39,-1.49 -2.39,-2.68 0,-0.8 0.55,-1.75 1.89,-1.75 1.1,0 2.69,0.9 2.69,2.89 0,2.59 -2.94,3.29 -4.63,3.29 -2.89,0 -4.64,-2.64 -5.23,-3.79 -1.24,3.29 -3.94,3.79 -5.38,3.79 -5.18,0 -8.02,-6.43 -8.02,-7.67 0,-0.5 0.5,-0.5 0.6,-0.5 0.39,0 0.54,0.1 0.64,0.54 1.7,5.29 4.99,6.53 6.68,6.53 0.94,0 2.69,-0.45 2.69,-3.33 0,-1.55 -0.85,-4.89 -2.69,-11.86 -0.8,-3.09 -2.54,-5.18 -4.73,-5.18 -0.3,0 -1.45,0 -2.49,0.65 1.24,0.25 2.34,1.29 2.34,2.69 0,1.34 -1.1,1.74 -1.85,1.74 -1.49,0 -2.73,-1.3 -2.73,-2.89 0,-2.29 2.48,-3.29 4.68,-3.29 3.28,0 5.08,3.49 5.22,3.79 0.61,-1.85 2.4,-3.79 5.39,-3.79 5.13,0 7.97,6.43 7.97,7.67 0,0.5 -0.45,0.5 -0.6,0.5 -0.45,0 -0.55,-0.2 -0.65,-0.55 -1.64,-5.33 -5.03,-6.52 -6.62,-6.52 -1.94,0 -2.74,1.59 -2.74,3.29 0,1.09 0.3,2.19 0.85,4.38 z"
           inkscape:connector-curvature="0"
           style="fill:#000000;stroke-width:0" /><path
           id="path4465"
           d="m 584.99,410.12 0,0.71 -0.02,0.68 -0.03,0.66 -0.04,0.64 -0.06,0.62 -0.08,0.59 -0.09,0.58 -0.11,0.56 -0.12,0.55 -0.15,0.53 -0.17,0.51 -0.19,0.5 -0.21,0.49 -0.24,0.48 -0.26,0.47 -0.14,0.24 -0.15,0.23 c -1.08,1.6 -3.24,2.99 -6.03,2.99 l 0,-0.97 c 1.88,0 3.7,-1.15 4.33,-3.18 0.55,-1.88 0.59,-4.39 0.59,-7.42 0,-2.58 0,-5.17 -0.45,-7.36 -0.7,-3.17 -3.07,-3.94 -4.47,-3.94 l 0,0 c -1.6,0 -3.73,0.94 -4.43,3.8 -0.49,2.06 -0.49,4.92 -0.49,7.5 0,2.54 0,5.19 0.53,7.11 0.73,2.76 2.96,3.49 4.39,3.49 l 0,0.97 c -8.09,0 -8.09,-9.52 -8.09,-12.03 0,-2.51 0,-11.82 8.09,-11.82 8.09,0 8.09,9.31 8.09,11.82 z"
           inkscape:connector-curvature="0"
           style="fill:#000000;stroke-width:0" /><path
           id="path4467"
           d="m 603.4,418.45 -0.01,0.37 0,0.39 -0.01,0.39 -0.01,0.41 -0.04,0.84 -0.06,0.88 -0.09,0.92 -0.1,0.94 -0.14,0.98 -0.16,1 -0.2,1.02 -0.23,1.04 -0.27,1.05 -0.3,1.06 -0.35,1.06 -0.39,1.07 -0.22,0.53 -0.22,0.54 -0.24,0.53 -0.25,0.53 c -2.99,6.12 -7.27,9.36 -7.77,9.36 -0.3,0 -0.5,-0.2 -0.5,-0.5 0,-0.15 0,-0.25 0.94,-1.15 4.89,-4.92 7.73,-12.85 7.73,-23.26 0,-8.52 -1.85,-17.28 -8.02,-23.56 -0.65,-0.6 -0.65,-0.69 -0.65,-0.85 0,-0.29 0.2,-0.49 0.5,-0.49 0.5,0 4.98,3.38 7.92,9.71 2.54,5.48 3.14,11.01 3.14,15.19 z"
           inkscape:connector-curvature="0"
           style="fill:#000000;stroke-width:0" /></g>    </g>
  </g>
</svg>
